<svg xmlns="http://www.w3.org/2000/svg" xmlns:xlink="http://www.w3.org/1999/xlink" width="480" zoomAndPan="magnify" viewBox="0 0 360 359.999987" height="480" preserveAspectRatio="xMidYMid meet" version="1.0"><defs><g/></defs><g fill="#764600" fill-opacity="1"><g transform="translate(64.747839, 325.524709)"><g><path d="M 103.1875 -99.578125 L 103.1875 -107.578125 C 112.78125 -107.578125 121.109375 -110.375 128.171875 -115.96875 C 135.242188 -121.570312 140.378906 -129.171875 143.578125 -138.765625 C 146.773438 -148.367188 147.441406 -159.101562 145.578125 -170.96875 C 143.710938 -182.832031 138.644531 -195.164062 130.375 -207.96875 C 125.039062 -216.226562 118.507812 -223.554688 110.78125 -229.953125 C 103.050781 -236.359375 95.117188 -241.359375 86.984375 -244.953125 C 78.847656 -248.554688 71.179688 -250.359375 63.984375 -250.359375 C 54.921875 -250.359375 48.390625 -248.820312 44.390625 -245.75 C 40.390625 -242.6875 38.054688 -239.15625 37.390625 -235.15625 C 36.722656 -231.164062 37.054688 -227.4375 38.390625 -223.96875 C 40.253906 -219.164062 43.453125 -215.226562 47.984375 -212.15625 C 52.523438 -209.09375 57.523438 -206.03125 62.984375 -202.96875 C 68.453125 -199.90625 73.785156 -196.375 78.984375 -192.375 C 84.179688 -188.375 88.445312 -183.109375 91.78125 -176.578125 C 95.113281 -170.046875 96.78125 -161.578125 96.78125 -151.171875 L 96.78125 0 L 9.203125 0 L 9.203125 -187.171875 C 9.203125 -204.503906 12.203125 -218.769531 18.203125 -229.96875 C 24.203125 -241.164062 31.929688 -249.960938 41.390625 -256.359375 C 50.859375 -262.753906 61.054688 -267.285156 71.984375 -269.953125 C 82.921875 -272.617188 93.320312 -273.953125 103.1875 -273.953125 C 128.25 -273.953125 150.578125 -270.550781 170.171875 -263.75 C 189.765625 -256.957031 205.226562 -247.5625 216.5625 -235.5625 C 227.894531 -223.5625 233.5625 -209.695312 233.5625 -193.96875 C 233.5625 -177.175781 228.425781 -161.644531 218.15625 -147.375 C 207.894531 -133.113281 193.03125 -121.582031 173.5625 -112.78125 C 154.101562 -103.976562 130.644531 -99.578125 103.1875 -99.578125 Z M 103.1875 -99.578125 "/></g></g></g><g fill="#cc7a00" fill-opacity="1"><g transform="translate(58.610639, 318.943367)"><g><path d="M 103.1875 -99.578125 L 103.1875 -107.578125 C 112.78125 -107.578125 121.109375 -110.375 128.171875 -115.96875 C 135.242188 -121.570312 140.378906 -129.171875 143.578125 -138.765625 C 146.773438 -148.367188 147.441406 -159.101562 145.578125 -170.96875 C 143.710938 -182.832031 138.644531 -195.164062 130.375 -207.96875 C 125.039062 -216.226562 118.507812 -223.554688 110.78125 -229.953125 C 103.050781 -236.359375 95.117188 -241.359375 86.984375 -244.953125 C 78.847656 -248.554688 71.179688 -250.359375 63.984375 -250.359375 C 54.921875 -250.359375 48.390625 -248.820312 44.390625 -245.75 C 40.390625 -242.6875 38.054688 -239.15625 37.390625 -235.15625 C 36.722656 -231.164062 37.054688 -227.4375 38.390625 -223.96875 C 40.253906 -219.164062 43.453125 -215.226562 47.984375 -212.15625 C 52.523438 -209.09375 57.523438 -206.03125 62.984375 -202.96875 C 68.453125 -199.90625 73.785156 -196.375 78.984375 -192.375 C 84.179688 -188.375 88.445312 -183.109375 91.78125 -176.578125 C 95.113281 -170.046875 96.78125 -161.578125 96.78125 -151.171875 L 96.78125 0 L 9.203125 0 L 9.203125 -187.171875 C 9.203125 -204.503906 12.203125 -218.769531 18.203125 -229.96875 C 24.203125 -241.164062 31.929688 -249.960938 41.390625 -256.359375 C 50.859375 -262.753906 61.054688 -267.285156 71.984375 -269.953125 C 82.921875 -272.617188 93.320312 -273.953125 103.1875 -273.953125 C 128.25 -273.953125 150.578125 -270.550781 170.171875 -263.75 C 189.765625 -256.957031 205.226562 -247.5625 216.5625 -235.5625 C 227.894531 -223.5625 233.5625 -209.695312 233.5625 -193.96875 C 233.5625 -177.175781 228.425781 -161.644531 218.15625 -147.375 C 207.894531 -133.113281 193.03125 -121.582031 173.5625 -112.78125 C 154.101562 -103.976562 130.644531 -99.578125 103.1875 -99.578125 Z M 103.1875 -99.578125 "/></g></g></g></svg>